<svg width="804" height="50" viewBox="0 0 804 50" fill="none" xmlns="http://www.w3.org/2000/svg">
<path d="M433.318 24.0129C433.025 24.5267 432.657 25.371 432.474 25.9582C431.483 29.6654 429.244 34.6206 425.977 38.6214C422.637 42.6957 418.233 46.0358 411.369 48.6051L408.689 46.1826C415.443 44.2005 419.994 40.8971 423.371 36.9697C426.197 33.6295 428.473 28.8579 429.207 25.5178H415.626L416.801 22.875C418.269 22.875 427.335 22.875 428.473 22.875C429.464 22.875 430.308 22.7649 430.896 22.5447L433.318 24.0129ZM421.022 18.4704C420.435 19.4248 419.774 20.6727 419.407 21.3334C417.241 25.4077 413.424 30.6565 407.515 34.5472L404.945 32.6752C411.295 28.8946 414.892 23.5357 416.507 20.269C416.874 19.6083 417.425 18.2869 417.645 17.3326L421.022 18.4704ZM446.532 19.645C447.486 19.7551 448.624 19.8285 449.799 19.8285C451.781 19.8285 462.095 19.8285 464.26 19.8285C465.398 19.8285 466.683 19.7551 467.564 19.645V22.6915C466.72 22.6181 465.435 22.5814 464.187 22.5814C462.131 22.5814 451.817 22.5814 449.799 22.5814C448.698 22.5814 447.523 22.6181 446.532 22.6915V19.645ZM470.28 29.2984C470.096 29.6654 469.839 30.1059 469.766 30.3995C468.812 33.9966 467.16 37.8139 464.407 40.8237C460.59 45.0448 455.965 47.1736 451.304 48.495L449.028 45.889C454.203 44.8245 458.791 42.4387 461.948 39.1353C464.15 36.8229 465.618 33.703 466.279 31.0235C464.481 31.0235 449.028 31.0235 446.826 31.0235C445.945 31.0235 444.55 31.0602 443.228 31.1703V28.0871C444.55 28.1972 445.798 28.3073 446.826 28.3073C448.624 28.3073 464.26 28.3073 466.132 28.3073C466.977 28.3073 467.784 28.1972 468.188 28.0137L470.28 29.2984ZM506.361 22.5814C506.104 23.0953 505.957 23.6825 505.81 24.4166C505.003 28.2706 503.241 34.1801 500.305 37.9607C496.964 42.2552 492.597 45.6687 485.88 47.7609L483.384 45.0081C490.504 43.2462 494.615 40.1263 497.698 36.1989C500.305 32.8588 501.993 27.7568 502.507 24.2331C500.378 24.2331 485.843 24.2331 483.714 24.2331C482.246 24.2331 480.998 24.3065 480.08 24.3432V21.0765C481.071 21.2233 482.539 21.3334 483.751 21.3334C485.843 21.3334 500.488 21.3334 502.14 21.3334C502.69 21.3334 503.424 21.2967 504.122 21.1499L506.361 22.5814ZM523.796 43.7234C523.796 41.6679 523.796 25.4444 523.796 22.3979C523.796 21.3334 523.722 19.7184 523.539 18.5439H527.136C526.989 19.6817 526.879 21.26 526.879 22.3979C526.879 28.0871 526.916 41.9983 526.916 43.7234C526.916 44.8979 526.989 46.88 527.136 48.0913H523.575C523.759 46.9167 523.796 45.0815 523.796 43.7234ZM526.218 28.1972C531.063 29.592 538.478 32.4183 542.552 34.4004L541.267 37.5203C537.083 35.2813 530.219 32.6752 526.218 31.4273V28.1972ZM580.321 22.4713C580.138 22.8383 579.881 23.8294 579.844 24.1964C579.183 28.5276 578.412 33.7764 575.733 37.924C572.76 42.5855 567.768 46.3294 561.859 48.2381L559.363 45.7422C564.758 44.274 570.007 41.0806 572.98 36.3824C575.072 33.1524 576.1 28.4542 576.467 24.123C574.412 24.123 558.849 24.123 556.243 24.123C556.243 25.1507 556.243 30.2894 556.243 31.464C556.243 31.9778 556.243 32.8955 556.316 33.8131H553.013C553.086 32.9322 553.123 32.1614 553.123 31.464C553.123 30.2894 553.123 25.1874 553.123 23.6091C553.123 22.7649 553.086 21.9574 553.013 21.1866C553.967 21.26 555.325 21.26 556.903 21.26C558.151 21.26 573.678 21.26 575.77 21.26C576.541 21.26 577.421 21.2233 578.082 21.0765L580.321 22.4713ZM588.58 31.0602C589.718 31.1703 591.626 31.2804 593.718 31.2804C596.398 31.2804 611.117 31.2804 613.833 31.2804C615.668 31.2804 616.953 31.1336 617.797 31.0602V34.6573C617.026 34.6206 615.484 34.5105 613.869 34.5105C611.08 34.5105 596.435 34.5105 593.718 34.5105C591.7 34.5105 589.754 34.5839 588.58 34.6573V31.0602ZM653.547 24.0129C653.254 24.5267 652.887 25.371 652.703 25.9582C651.712 29.6654 649.473 34.6206 646.206 38.6214C642.866 42.6957 638.462 46.0358 631.598 48.6051L628.918 46.1826C635.672 44.2005 640.223 40.8971 643.6 36.9697C646.427 33.6295 648.702 28.8579 649.436 25.5178H635.856L637.03 22.875C638.498 22.875 647.564 22.875 648.702 22.875C649.693 22.875 650.538 22.7649 651.125 22.5447L653.547 24.0129ZM641.251 18.4704C640.664 19.4248 640.003 20.6727 639.636 21.3334C637.471 25.4077 633.653 30.6565 627.744 34.5472L625.174 32.6752C631.524 28.8946 635.121 23.5357 636.736 20.269C637.104 19.6083 637.654 18.2869 637.874 17.3326L641.251 18.4704ZM673.184 32.0512H693.189V34.5839H673.184V32.0512ZM676.781 23.0218H691.904V25.5545H676.781V23.0218ZM681.994 16.158H684.673V49.8898H681.994V16.158ZM680.966 33.2258L683.131 33.9232C680.966 39.6491 677.038 45.1182 673.001 48.0913C672.56 47.3939 671.716 46.4395 671.092 45.9624C675.056 43.4297 678.947 38.2911 680.966 33.2258ZM685.811 33.4093C687.573 38.1075 690.95 43.0994 694.216 45.632C693.592 46.1092 692.675 47.0635 692.198 47.7976C688.967 44.8245 685.664 39.2454 683.792 34.07L685.811 33.4093ZM676.525 17.8465L679.057 18.2869C678.323 23.2054 676.928 27.8669 674.983 30.9868C674.506 30.583 673.405 29.8857 672.744 29.592C674.689 26.729 675.864 22.3245 676.525 17.8465ZM660.264 23.2421H672.964V25.7747H660.264V23.2421ZM665.55 16.1213H668.229V49.8531H665.55V16.1213ZM665.513 24.8938L667.165 25.4811C666.027 31.4273 663.494 38.6948 660.925 42.402C660.595 41.6312 659.934 40.42 659.42 39.7593C661.953 36.4925 664.412 30.1059 665.513 24.8938ZM668.119 26.8392C668.963 27.9403 672.12 32.9322 672.781 34.07L671.129 36.0521C670.321 34.1434 667.752 29.4452 666.798 27.9036L668.119 26.8392ZM721.011 17.9566L722.846 16.3783C724.755 17.6629 727.067 19.5716 728.205 20.8563L726.26 22.5814C725.158 21.26 722.919 19.278 721.011 17.9566ZM697.006 22.9851H729.71V25.6646H697.006V22.9851ZM698.254 31.1703H714.477V33.8498H698.254V31.1703ZM704.861 32.6018H707.614V45.7054H704.861V32.6018ZM697.153 46.0725C701.521 45.2283 708.715 43.7601 715.505 42.2919L715.725 44.7511C709.449 46.2193 702.732 47.7609 697.997 48.8254L697.153 46.0725ZM715.689 16.3049H718.625C718.515 33.3359 721.818 47.1002 726.333 47.1002C727.361 47.1002 727.801 45.0815 728.021 40.163C728.645 40.787 729.71 41.411 730.481 41.6679C730.003 48.0913 728.939 49.9632 726.113 49.9632C718.809 49.9632 715.835 34.07 715.689 16.3049ZM735.252 45.889C741.639 45.7422 751.88 45.3751 761.423 44.9346L761.313 47.4673C752.063 47.9444 742.116 48.3849 735.619 48.6051L735.252 45.889ZM734.922 34.5472H765.35V37.1532H734.922V34.5472ZM741.198 27.5365H758.743V30.1059H741.198V27.5365ZM744.979 36.1989L748.062 37.0798C746.374 40.6035 744.245 44.8979 742.446 47.6508L739.987 46.8433C741.712 43.9803 743.878 39.4289 744.979 36.1989ZM753.715 40.0896L756.064 38.8416C759.441 41.7413 763.038 45.7054 764.763 48.495L762.267 49.9999C760.615 47.2471 756.982 43.026 753.715 40.0896ZM749.898 18.8375C746.888 23.3155 740.868 28.3441 734.628 31.464C734.298 30.8033 733.601 29.8122 733.013 29.225C739.327 26.2152 745.456 20.893 748.319 16.1947H751.146C755.036 21.6271 761.46 26.4354 767.296 28.8212C766.635 29.4819 765.974 30.4729 765.497 31.2804C759.771 28.5276 753.311 23.6091 749.898 18.8375ZM783.262 46.1459H804V48.8621H783.262V46.1459ZM784.694 28.1605H803.23V30.8033H784.694V28.1605ZM792.585 16.415H795.375V47.4673H792.585V16.415ZM770.415 23.0218H782.602V25.5545H770.415V23.0218ZM776.215 34.0333L778.931 30.7666V49.9265H776.215V34.0333ZM776.215 16.158H778.931V24.2698H776.215V16.158ZM778.711 31.5007C779.959 32.3816 784.217 36.1255 785.281 37.0431L783.593 39.2821C782.234 37.7038 778.637 34.2168 777.133 32.8955L778.711 31.5007ZM781.574 23.0218H782.124L782.638 22.9117L784.217 23.9395C781.427 30.6932 775.811 36.7862 770.562 40.163C770.269 39.4656 769.608 38.181 769.131 37.7038C774.123 34.7674 779.372 29.1883 781.574 23.6091V23.0218Z" fill="black"/>
<path d="M385.617 7.86532C385.617 7.05098 385.817 6.30865 386.213 5.63831C386.611 4.96797 387.143 4.43418 387.815 4.03693C388.486 3.63971 389.228 3.44108 390.043 3.44108C390.746 3.44108 391.399 3.59251 391.994 3.89541C392.594 4.1983 393.09 4.61293 393.483 5.13928C393.876 5.66065 394.117 6.25154 394.212 6.91194H392.41C392.311 6.40051 392.036 5.98341 391.585 5.66065C391.131 5.33293 390.617 5.16907 390.043 5.16907C389.545 5.16907 389.094 5.29072 388.685 5.53402C388.279 5.77734 387.953 6.10257 387.71 6.50974C387.466 6.91692 387.345 7.36879 387.345 7.86532C387.345 8.36186 387.466 8.81373 387.71 9.22089C387.953 9.62808 388.279 9.95331 388.685 10.1966C389.094 10.4399 389.545 10.5616 390.043 10.5616C390.617 10.5616 391.105 10.4002 391.501 10.0774C391.904 9.74973 392.156 9.33014 392.261 8.81871H394.065C393.97 9.4791 393.74 10.0725 393.37 10.5988C393.003 11.1202 392.531 11.5323 391.957 11.8352C391.385 12.1381 390.746 12.2896 390.043 12.2896C389.228 12.2896 388.486 12.0909 387.815 11.6937C387.143 11.2965 386.611 10.7627 386.213 10.0923C385.817 9.422 385.617 8.67967 385.617 7.86532ZM389.967 15.7306C388.884 15.7306 387.867 15.5272 386.913 15.12C385.966 14.7128 385.127 14.1492 384.404 13.4292C383.683 12.7042 383.116 11.8675 382.705 10.9191C382.298 9.97069 382.096 8.95276 382.102 7.86532C382.107 6.77789 382.314 5.75996 382.72 4.81156C383.132 3.86313 383.698 3.02894 384.419 2.30894C385.138 1.584 385.971 1.01793 386.92 0.610743C387.87 0.203581 388.884 0 389.967 0C391.055 0 392.072 0.203581 393.021 0.610743C393.976 1.01793 394.809 1.584 395.523 2.30894C396.244 3.02894 396.807 3.86313 397.214 4.81156C397.623 5.75996 397.827 6.77789 397.832 7.86532C397.838 8.95276 397.636 9.97069 397.229 10.9191C396.823 11.8675 396.259 12.7042 395.538 13.4292C394.817 14.1492 393.981 14.7128 393.029 15.12C392.075 15.5272 391.055 15.7306 389.967 15.7306ZM389.967 14.0026C390.816 14.0026 391.613 13.8437 392.358 13.526C393.103 13.2082 393.755 12.7687 394.317 12.2076C394.878 11.6465 395.318 10.9961 395.635 10.2562C395.953 9.51138 396.11 8.7169 396.105 7.87277C396.099 7.02368 395.939 6.22672 395.62 5.4819C395.302 4.73708 394.864 4.0841 394.301 3.52301C393.74 2.9619 393.09 2.52246 392.35 2.20468C391.611 1.88689 390.816 1.72799 389.967 1.72799C389.123 1.72799 388.331 1.88689 387.592 2.20468C386.852 2.52246 386.202 2.96439 385.641 3.53046C385.08 4.09157 384.637 4.74452 384.314 5.48934C383.997 6.22921 383.835 7.02368 383.829 7.87277C383.824 8.71195 383.981 9.50393 384.299 10.2488C384.616 10.9886 385.056 11.6391 385.617 12.2002C386.184 12.7613 386.837 13.2032 387.576 13.526C388.321 13.8437 389.118 14.0026 389.967 14.0026Z" fill="#A9C703"/>
<path d="M0 46.9538V1.19189H6.90452V23.045H7.46312L26.6571 1.19189H35.3494L16.8926 21.7937L35.4162 46.9538H27.1041L12.3119 26.5084L6.90452 32.7202V46.9538H0ZM41.7845 46.9538V1.19189H58.0961C61.6416 1.19189 64.5835 1.80266 66.9223 3.02417C69.2759 4.24568 71.0338 5.93641 72.1955 8.09642C73.3575 10.2415 73.9385 12.7218 73.9385 15.5371C73.9385 18.3376 73.3502 20.8032 72.1732 22.9334C71.0113 25.0486 69.2536 26.6946 66.9001 27.8715C64.5612 29.0484 61.6193 29.6367 58.0739 29.6367H45.7172V23.6929H57.448C59.6826 23.6929 61.5 23.3728 62.9003 22.7323C64.3155 22.0915 65.3509 21.1605 66.0063 19.939C66.6617 18.7175 66.9895 17.2504 66.9895 15.5371C66.9895 13.8093 66.6541 12.3121 65.9838 11.0459C65.3283 9.7797 64.293 8.81143 62.878 8.14109C61.4777 7.45587 59.638 7.11325 57.3589 7.11325H48.689V46.9538H41.7845ZM64.375 26.3073L75.6814 46.9538H67.8161L56.7331 26.3073H64.375ZM86.2058 46.9538H78.8766L95.3447 1.19189H103.322L119.79 46.9538H112.461L99.5231 9.50413H99.1657L86.2058 46.9538ZM87.4346 29.0334H111.209V34.843H87.4346V29.0334ZM126.398 46.9538V1.19189H154.776V7.13559H133.303V21.0787H152.742V27H133.303V46.9538H126.398ZM161.01 7.13559V1.19189H196.426V7.13559H182.148V46.9538H175.266V7.13559H161.01ZM213.213 46.9538L200.521 1.19189H207.783L216.699 36.6306H217.123L226.396 1.19189H233.591L242.864 36.6528H243.289L252.182 1.19189H259.468L246.752 46.9538H239.803L230.172 12.6771H229.815L220.184 46.9538H213.213ZM265.762 46.9538V1.19189H294.453V7.13559H272.666V21.0787H292.956V27H272.666V41.0102H294.72V46.9538H265.762ZM303.676 46.9538V1.19189H319.986C323.533 1.19189 326.475 1.80266 328.814 3.02417C331.168 4.24568 332.924 5.93641 334.086 8.09642C335.247 10.2415 335.829 12.7218 335.829 15.5371C335.829 18.3376 335.242 20.8032 334.065 22.9334C332.901 25.0486 331.144 26.6946 328.79 27.8715C326.451 29.0484 323.51 29.6367 319.965 29.6367H307.609V23.6929H319.338C321.572 23.6929 323.392 23.3728 324.792 22.7323C326.205 22.0915 327.24 21.1605 327.896 19.939C328.551 18.7175 328.879 17.2504 328.879 15.5371C328.879 13.8093 328.546 12.3121 327.875 11.0459C327.22 9.7797 326.184 8.81143 324.768 8.14109C323.368 7.45587 321.528 7.11325 319.249 7.11325H310.579V46.9538H303.676ZM326.265 26.3073L337.573 46.9538H329.708L318.623 26.3073H326.265ZM344.23 46.9538V1.19189H351.135V23.045H351.694L370.888 1.19189H379.579L361.124 21.7937L379.647 46.9538H371.336L356.544 26.5084L351.135 32.7202V46.9538H344.23Z" fill="#A9C703"/>
</svg>
